<?xml version="1.0" standalone="no"?><!DOCTYPE svg PUBLIC "-//W3C//DTD SVG 1.1//EN" "http://www.w3.org/Graphics/SVG/1.1/DTD/svg11.dtd"><svg t="1632919421109" class="icon" viewBox="0 0 1024 1024" version="1.1" xmlns="http://www.w3.org/2000/svg" p-id="1840" xmlns:xlink="http://www.w3.org/1999/xlink" width="128" height="128"><defs><style type="text/css"></style></defs><path d="M1002.939733 471.04c18.3296-18.295467 24.712533-45.056 16.4864-69.666133a63.829333 63.829333 0 0 0-52.906666-46.592l-272.554667-47.650134-121.924267-247.5008c-9.659733-22.698667-34.133333-38.263467-59.630933-38.263466-24.610133 0-48.059733 15.018667-59.665067 38.331733L330.922667 307.0976l-272.213334 49.493333c-26.043733 3.2768-46.523733 20.6848-55.1936 46.6944-6.792533 23.722667 0.6144 51.9168 18.500267 69.8368l196.266667 182.8864-51.5072 266.990934c-4.8128 24.200533 5.9392 50.858667 26.7264 66.389333 18.944 14.267733 48.264533 16.213333 69.358933 4.949333l249.5488-123.869866 247.466667 123.733333c10.5472 5.256533 22.357333 8.465067 31.744 8.465067a58.368 58.368 0 0 0 37.546666-13.0048c21.469867-16.145067 31.675733-41.608533 26.999467-66.730667l-49.595733-266.922667 3.4816-3.208533 192.887466-181.76z" p-id="1841"></path></svg>